<?xml version="1.0" encoding="utf-8"?>
<!-- Generator: Adobe Illustrator 16.0.0, SVG Export Plug-In . SVG Version: 6.00 Build 0)  -->
<!DOCTYPE svg PUBLIC "-//W3C//DTD SVG 1.1//EN" "http://www.w3.org/Graphics/SVG/1.1/DTD/svg11.dtd">
<svg version="1.1" id="Layer_1" xmlns="http://www.w3.org/2000/svg" xmlns:xlink="http://www.w3.org/1999/xlink" x="0px" y="0px"
	 width="72px" height="72px" viewBox="0 0 72 72" enable-background="new 0 0 72 72" xml:space="preserve">
<path opacity="0.5" fill="#E05C28" d="M69,56c0,8.284-6.716,15-15,15H18C9.716,71,3,64.284,3,56V16C3,7.716,9.716,1,18,1h36
	c8.284,0,15,6.716,15,15V56z"/>
<path opacity="0.5" fill="#6B3815" d="M31.744,36.397c0,0,4.659-0.156,4.659-5.979c0-2.661,0.311-6.679-6.834-9.396l-20.19-0.078
	v33.936h20.035c0,0,8.231-1.709,8.231-9.318C37.645,38.09,34.539,36.552,31.744,36.397z M17.144,27.155H27.55
	c2.097,0.855,1.708,2.764,1.708,3.728c0,3.417-2.019,3.572-2.019,3.572H17.144V27.155z M27.239,48.666H17.144V39.58H27.55
	c2.097,1.062,2.873,2.562,2.873,4.64C30.423,48.473,27.239,48.666,27.239,48.666z"/>
<path opacity="0.5" fill="#6B3815" d="M61.873,34.533c0,0-2.795-5.513-10.25-4.892c0,0-9.629-0.932-12.425,9.861
	c0,0-2.408,11.184,6.679,15.066c0,0,7.688,2.407,12.113,0c0,0,5.592-1.994,5.514-8.129l-5.979-0.051c0,0-0.371,3.032-2.434,3.416
	c-4.453,0.829-5.695,0.104-7.119-0.983c-0.959-0.732-1.501-1.553-1.733-4.503h17.42C63.659,44.318,64.358,37.173,61.873,34.533z
	 M46.552,39.658c0.028-2.949,2.391-5.332,5.304-5.332c2.914,0,5.277,2.383,5.304,5.332H46.552z"/>
<rect x="44.634" y="22.73" opacity="0.5" fill="#6B3815" width="13.823" height="4.659"/>
</svg>
