<?xml version="1.0" encoding="utf-8"?>
<!-- Generator: Adobe Illustrator 16.0.0, SVG Export Plug-In . SVG Version: 6.00 Build 0)  -->
<!DOCTYPE svg PUBLIC "-//W3C//DTD SVG 1.1//EN" "http://www.w3.org/Graphics/SVG/1.1/DTD/svg11.dtd">
<svg version="1.1" id="Layer_1" xmlns="http://www.w3.org/2000/svg" xmlns:xlink="http://www.w3.org/1999/xlink" x="0px" y="0px"
	 width="340px" height="110px" viewBox="-60 -20 340 110" enable-background="new -60 -20 340 110" xml:space="preserve">
<polygon fill="#6FC5C8" points="281.5,88.5 -60.04,88.5 -12.827,38.334 -60.04,-17.727 281.5,-17.727 "/>
<g>
	<g>
		<polyline fill="none" stroke="#FFFFFF" stroke-width="1.647" stroke-miterlimit="10" points="267.94,65.441 267.94,75.326 
			258.059,75.326 		"/>
		
			<line fill="none" stroke="#FFFFFF" stroke-width="1.647" stroke-miterlimit="10" stroke-dasharray="18.6102,18.6102" x1="239.448" y1="75.326" x2="-11.791" y2="75.326"/>
		<polyline fill="none" stroke="#FFFFFF" stroke-width="1.647" stroke-miterlimit="10" points="-21.094,75.326 -30.977,75.326 
			-23.794,68.538 		"/>
		
			<line fill="none" stroke="#FFFFFF" stroke-width="1.647" stroke-miterlimit="10" stroke-dasharray="11.5347,11.5347" x1="-15.408" y1="60.618" x2="-2.828" y2="48.741"/>
		<polyline fill="none" stroke="#FFFFFF" stroke-width="1.647" stroke-miterlimit="10" points="1.366,44.779 8.55,37.996 
			1.752,30.82 		"/>
		
			<line fill="none" stroke="#FFFFFF" stroke-width="1.647" stroke-miterlimit="10" stroke-dasharray="12.5695,12.5695" x1="-6.891" y1="21.693" x2="-19.858" y2="8.009"/>
		<polyline fill="none" stroke="#FFFFFF" stroke-width="1.647" stroke-miterlimit="10" points="-24.181,3.444 -30.977,-3.729 
			-21.094,-3.729 		"/>
		
			<line fill="none" stroke="#FFFFFF" stroke-width="1.647" stroke-miterlimit="10" stroke-dasharray="18.6102,18.6102" x1="-2.486" y1="-3.729" x2="248.753" y2="-3.729"/>
		<polyline fill="none" stroke="#FFFFFF" stroke-width="1.647" stroke-miterlimit="10" points="258.059,-3.729 267.94,-3.729 
			267.94,6.155 		"/>
		
			<line fill="none" stroke="#FFFFFF" stroke-width="1.647" stroke-miterlimit="10" stroke-dasharray="19.7626,19.7626" x1="267.94" y1="25.917" x2="267.94" y2="55.561"/>
	</g>
</g>
<g>
	<path fill="#6B3815" d="M40.28,47.887c-1.987-3.653-2.984-8.066-2.984-13.241c0-5.176,0.997-9.608,2.984-13.299
		c1.964-3.65,4.352-5.476,7.164-5.476c2.312,0,4.266,1.003,5.856,3.009c1.59,1.966,2.573,4.616,2.948,7.944h-1.494
		c-0.273-2.487-1.107-4.553-2.499-6.199c-1.366-1.644-2.973-2.466-4.811-2.466c-2.388,0-4.428,1.602-6.117,4.811
		c-1.692,3.249-2.539,7.14-2.539,11.676c0,4.535,0.845,8.425,2.539,11.675c1.689,3.21,3.729,4.815,6.117,4.815
		c2.038,0,3.719-0.965,5.036-2.889c1.341-1.927,2.101-4.492,2.276-7.703h1.494c-0.2,3.891-1.107,7-2.726,9.326
		c-1.589,2.329-3.616,3.486-6.078,3.486C44.633,53.362,42.246,51.537,40.28,47.887z"/>
	<path fill="#6B3815" d="M60.836,47.887c-1.791-3.33-2.687-7.743-2.687-13.241c0-5.698,0.895-10.249,2.687-13.664
		c1.79-3.411,4.179-5.113,7.163-5.113c2.983,0,5.371,1.702,7.161,5.113c1.792,3.415,2.687,7.966,2.687,13.664
		c0,5.498-0.895,9.911-2.687,13.241c-1.79,3.33-4.177,4.994-7.161,4.994C65.015,52.881,62.626,51.217,60.836,47.887z M74.079,46.26
		c1.517-2.888,2.276-6.759,2.276-11.614c0-4.977-0.759-8.968-2.276-11.976c-1.519-3.01-3.546-4.511-6.08-4.511
		c-2.539,0-4.564,1.501-6.082,4.511c-1.515,3.011-2.274,6.999-2.274,11.976c0,4.855,0.759,8.727,2.274,11.614
		c1.518,2.933,3.545,4.395,6.082,4.395C70.533,50.654,72.56,49.192,74.079,46.26z"/>
	<path fill="#6B3815" d="M81.425,52.46V16.771h2.054l13.355,32.738V16.771h1.491V52.46h-2.05L82.92,20.199V52.46H81.425
		L81.425,52.46z"/>
	<path fill="#6B3815" d="M108.434,52.46V19.118h-7.572v-2.351h16.712v2.351h-7.649V52.46H108.434z"/>
	<path fill="#6B3815" d="M118.058,52.46l8.771-35.692h1.861l8.658,35.692h-1.717l-2.835-11.44h-10.22l-2.834,11.44H118.058z
		 M132.234,38.735l-4.552-19.2l-4.662,19.2H132.234z"/>
	<path fill="#6B3815" d="M141.748,47.887c-1.99-3.653-2.985-8.066-2.985-13.241c0-5.176,0.995-9.608,2.985-13.299
		c1.963-3.65,4.348-5.476,7.16-5.476c2.314,0,4.268,1.003,5.856,3.009c1.592,1.966,2.574,4.616,2.952,7.944h-1.494
		c-0.274-2.487-1.106-4.553-2.495-6.199c-1.368-1.644-2.973-2.466-4.812-2.466c-2.386,0-4.423,1.602-6.118,4.811
		c-1.691,3.249-2.537,7.14-2.537,11.676c0,4.535,0.843,8.425,2.537,11.675c1.691,3.21,3.731,4.815,6.118,4.815
		c2.04,0,3.721-0.965,5.036-2.889c1.345-1.927,2.103-4.492,2.278-7.703h1.492c-0.197,3.891-1.107,7-2.724,9.326
		c-1.592,2.329-3.616,3.486-6.079,3.486C146.096,53.362,143.711,51.537,141.748,47.887z"/>
	<path fill="#6B3815" d="M166.145,52.46V19.118h-7.573v-2.351h16.712v2.351h-7.649V52.46H166.145z"/>
	<path fill="#6B3815" d="M189.756,52.46V16.771h2.353l8.093,32.68l8.06-32.68h2.35V52.46h-1.492V19.538l-8.249,32.922h-1.378
		l-8.242-32.922V52.46H189.756L189.756,52.46z"/>
	<path fill="#6B3815" d="M215.384,52.46V16.771h14.437v2.349h-12.944v13.722h11.825v2.225h-11.825V50.17h12.944v2.29H215.384
		L215.384,52.46z"/>
</g>
</svg>
