<?xml version="1.0" encoding="utf-8"?>
<!-- Generator: Adobe Illustrator 16.0.0, SVG Export Plug-In . SVG Version: 6.00 Build 0)  -->
<!DOCTYPE svg PUBLIC "-//W3C//DTD SVG 1.1//EN" "http://www.w3.org/Graphics/SVG/1.1/DTD/svg11.dtd">
<svg version="1.1" id="Layer_1" xmlns="http://www.w3.org/2000/svg" xmlns:xlink="http://www.w3.org/1999/xlink" x="0px" y="0px"
	 width="72px" height="72px" viewBox="0 0 72 72" enable-background="new 0 0 72 72" xml:space="preserve">
<path opacity="0.5" fill="#E05C28" d="M69,56c0,8.284-6.716,15-15,15H18C9.716,71,3,64.284,3,56V16C3,7.716,9.716,1,18,1h36
	c8.284,0,15,6.716,15,15V56z"/>
<path opacity="0.5" fill="#6B3815" d="M57.776,16.611V6.008L43.754,5.667c0,0-9.918,1.71-10.603,12.312v11.628H22.891v11.971h10.261
	v29.755h11.97V42.262h10.261l2.052-12.312H44.779V19.347C44.779,19.347,46.49,15.585,57.776,16.611z"/>
</svg>
