<?xml version="1.0" encoding="utf-8"?>
<!-- Generator: Adobe Illustrator 16.0.0, SVG Export Plug-In . SVG Version: 6.00 Build 0)  -->
<!DOCTYPE svg PUBLIC "-//W3C//DTD SVG 1.1//EN" "http://www.w3.org/Graphics/SVG/1.1/DTD/svg11.dtd">
<svg version="1.1" id="Layer_1" xmlns="http://www.w3.org/2000/svg" xmlns:xlink="http://www.w3.org/1999/xlink" x="0px" y="0px"
	 width="1100px" height="300px" viewBox="0 0 1100 300" enable-background="new 0 0 1100 300" xml:space="preserve">
<path fill="#6FC5C8" d="M1061,179.822c0,6.231-7.21,11.282-16.103,11.282H55.103c-8.894,0-16.103-5.051-16.103-11.282v-51.144
	c0-6.231,7.209-11.282,16.103-11.282h989.794c8.893,0,16.103,5.051,16.103,11.282V179.822z"/>
<circle fill="#E05C28" cx="872.077" cy="150.105" r="79.496"/>
<g>
	
		<circle fill="none" stroke="#F4DAB8" stroke-miterlimit="10" stroke-dasharray="11.9048,11.9048" cx="872.224" cy="149.627" r="71.996"/>
</g>
<g>
	<path fill="#F4DAB8" d="M809.859,151.989l9.751-31.882l1.431,0.438l-4.259,13.925l12.806,3.917l4.259-13.926l1.431,0.438
		l-9.751,31.882l-1.431-0.438l4.867-15.914l-12.805-3.917l-4.868,15.913L809.859,151.989z"/>
	<path fill="#F4DAB8" d="M830.104,158.181l9.752-31.881l1.43,0.438l-9.751,31.882L830.104,158.181z"/>
	<path fill="#F4DAB8" d="M836.113,160.02l9.751-31.882l10.122,3.097c1.454,0.444,2.443,1.649,2.964,3.61
		c0.531,1.926,0.441,4.055-0.271,6.385c-0.624,2.042-1.477,3.722-2.557,5.038c-1.104,1.309-2.172,1.942-3.203,1.901
		c0.772,0.628,1.142,1.976,1.11,4.042c-0.033,2.068-0.46,4.446-1.282,7.135c-0.46,1.506-0.782,2.642-0.965,3.408
		c-0.227,0.911-0.322,1.567-0.288,1.97l-1.431-0.438c-0.108-0.502-0.022-1.338,0.258-2.508l1.29-4.603
		c0.657-2.149,0.877-4.101,0.656-5.854c-0.208-1.71-0.8-2.714-1.777-3.013l-8.441-2.582l-4.505,14.731L836.113,160.02z
		 M851.099,146.318c1.121,0.342,2.284-0.007,3.49-1.049c1.17-1.014,2.035-2.435,2.595-4.263c0.548-1.792,0.625-3.454,0.233-4.985
		c-0.428-1.502-1.201-2.425-2.322-2.768l-8.441-2.582l-3.996,13.064L851.099,146.318z"/>
	<path fill="#F4DAB8" d="M855.248,165.871l9.752-31.88l13.842,4.233l-0.641,2.097l-12.411-3.796l-3.75,12.258l11.338,3.468
		l-0.607,1.989l-11.339-3.468l-4.127,13.495l12.411,3.796l-0.625,2.043L855.248,165.871z"/>
	<path fill="#F4DAB8" d="M883.219,174.428l9.752-31.882l2.253,0.689l-1.168,31.568l16.656-26.831l2.253,0.689l-9.751,31.882
		l-1.431-0.438l8.995-29.409l-16.9,26.991l-1.323-0.405l1.091-31.826l-8.995,29.408L883.219,174.428z"/>
	<path fill="#F4DAB8" d="M907.791,181.943l9.752-31.882l13.843,4.233l-0.642,2.098l-12.412-3.797l-3.75,12.258l11.34,3.469
		l-0.608,1.988l-11.339-3.468l-4.128,13.495l12.412,3.797l-0.624,2.043L907.791,181.943z"/>
</g>
</svg>
