<?xml version="1.0" encoding="utf-8"?>
<!-- Generator: Adobe Illustrator 16.0.0, SVG Export Plug-In . SVG Version: 6.00 Build 0)  -->
<!DOCTYPE svg PUBLIC "-//W3C//DTD SVG 1.1//EN" "http://www.w3.org/Graphics/SVG/1.1/DTD/svg11.dtd">
<svg version="1.1" id="Layer_1" xmlns="http://www.w3.org/2000/svg" xmlns:xlink="http://www.w3.org/1999/xlink" x="0px" y="0px"
	 width="72px" height="72px" viewBox="0 0 72 72" enable-background="new 0 0 72 72" xml:space="preserve">
<path opacity="0.5" fill="#008080" d="M69,56c0,8.284-6.716,15-15,15H18C9.716,71,3,64.284,3,56V16C3,7.716,9.716,1,18,1h36
	c8.284,0,15,6.716,15,15V56z"/>
<path opacity="0.5" fill="#6B3815" d="M21.512,45.18c0,0-16.099-5.661-4.025-24.702c0,0,8.336-10.55,27.308-7.462
	c0,0,17.248,3.088,16.674,19.298c0,0,0.574,15.696-13.512,19.813c0,0-8.91,3.603-14.373-2.83c0,0-0.095-0.688-1.054,2.658
	c-0.958,3.345-1.341,9.177-8.527,16.553c0,0-1.15,2.059-1.15-5.232c0-7.289,4.887-22.729,5.462-24.272c0,0-3.258-6.175-0.575-9.777
	c0,0,1.34-4.29,5.845-4.29c0,0,7.09-0.171,5.174,7.462c0,0-2.012,7.632-3.257,7.632c0,0-1.054,6.348,3.162,6.862
	c0,0,6.037,1.888,9.582-2.401s5.078-9.864,4.503-16.639c-0.574-6.776-9.104-10.378-13.606-10.207
	c-4.503,0.172-11.785,0.172-17.63,8.577c0,0-4.122,9.177,1.532,14.324C23.044,40.547,22.661,44.58,21.512,45.18z"/>
</svg>
